<svg width="574" height="428" viewBox="0 0 574 428" fill="none" xmlns="http://www.w3.org/2000/svg">
<path d="M297.335 469.826C238.235 493.857 161.852 482.121 94.3885 436.294C26.3679 389.908 -33.2895 309.99 21.35 278.694C75.9895 247.397 244.926 265.281 314.619 213.306C384.87 160.773 356.435 39.4987 370.931 8.76103C385.985 -22.5355 444.527 37.8221 504.185 67.442C563.285 97.062 624.057 97.062 702.114 118.858C780.17 141.212 876.068 185.922 846.518 226.16C816.411 265.84 661.413 301.048 575.551 318.373C490.246 336.257 475.192 335.698 464.041 333.463C453.448 331.786 447.873 327.874 423.341 356.376C399.366 384.878 356.993 445.236 297.335 469.826Z" fill="#175BEC"/>
</svg>
