<svg width="437" height="377" viewBox="0 0 437 377" fill="none" xmlns="http://www.w3.org/2000/svg">
<path d="M205.196 -45.7754C238.721 7.21181 239.455 54.2018 251.674 74.5198C264.105 95.2045 287.443 89.0623 314.833 96.7113C342.435 104.727 373.143 126.59 400.066 170.681C427.143 214.193 450.066 280.144 426.351 295.792C402.48 312.017 332.336 277.728 274.42 289.17C216.504 300.611 171.761 357.728 121.052 372.34C69.7651 386.798 13.0915 358.907 -16.7786 313.097C-46.8036 267.865 -49.8135 205.08 -18.0822 161.831C13.6491 118.582 79.755 95.0802 95.136 35.3645C110.729 -23.9846 75.0182 -119.702 90.5815 -138.464C105.778 -157.014 171.882 -98.3959 205.196 -45.7754Z" fill="#87EBFF"/>
</svg>
