<svg width="225" height="69" viewBox="0 0 225 69" fill="none" xmlns="http://www.w3.org/2000/svg">
<path d="M112.893 35.1171L91 30.4986L97.4804 8.58243L110.608 1.52148L134.261 4.32925L127.791 27.9361L112.893 35.1171Z" fill="#198EFB"/>
<path d="M112.893 35.1168L91 30.4982L97.4804 8.58203L112.893 16.9891V35.1168Z" fill="#175BEC" stroke="white" stroke-width="0.0875733"/>
<path d="M100.808 10.5088L112.543 17.0768V31.7891L100.808 25.2211V10.5088Z" fill="white"/>
<path d="M124.453 10.5088L112.718 17.0768V31.7891L124.453 25.2211V10.5088Z" fill="#87EBFF"/>
<path d="M100.808 10.3311L112.626 16.9908L124.54 10.1122L112.626 4.81393L100.808 10.3311Z" fill="#87EBFF"/>
<path d="M112.893 35.1718L91 30.5533L97.4804 8.63711M112.893 35.1718L127.791 27.9908L134.261 4.38394M112.893 35.1718V17.0442M134.261 4.38394L110.608 1.57617L97.4804 8.63711M134.261 4.38394L112.893 17.0442M97.4804 8.63711L112.893 17.0442" stroke="white" stroke-width="1.05088"/>
<path d="M2.72 61.24C2.42667 61.24 2.18 61.22 1.98 61.18C1.79333 61.1533 1.60667 61.1067 1.42 61.04L1.76 59.54C1.88 59.58 2 59.6133 2.12 59.64C2.25333 59.6667 2.41333 59.68 2.6 59.68C3.02667 59.68 3.37333 59.5933 3.64 59.42C3.90667 59.2467 4.12667 58.98 4.3 58.62L4.58 57.92L0.1 47.88H1.88L4.32 53.72L5.32 56.3H5.4L6.32 53.72L8.58 47.88H10.28L5.98 58.62C5.64667 59.42 5.22667 60.06 4.72 60.54C4.21333 61.0067 3.54667 61.24 2.72 61.24ZM12.0734 61V47.88H13.7334V53.38H19.8534V47.88H21.5134V61H19.8534V54.82H13.7334V61H12.0734ZM25.1203 61V47.88H26.7603V54.66C26.7603 55.3533 26.7403 56.06 26.7003 56.78C26.6603 57.5 26.607 58.1933 26.5403 58.86H26.6203L28.0203 56.14L32.8203 47.88H34.6403V61H32.9803V54.14C32.9803 53.4333 33.007 52.7333 33.0603 52.04C33.127 51.3467 33.1803 50.6733 33.2203 50.02H33.1403L31.7403 52.72L26.9403 61H25.1203ZM38.2844 61V47.88H42.1844C43.0644 47.88 43.8444 47.9867 44.5244 48.2C45.2044 48.4133 45.731 48.76 46.1044 49.24C46.491 49.7067 46.6844 50.32 46.6844 51.08C46.6844 51.76 46.5177 52.36 46.1844 52.88C45.8644 53.3867 45.391 53.74 44.7644 53.94V54.02C45.591 54.1667 46.2444 54.5 46.7244 55.02C47.2044 55.5267 47.4444 56.22 47.4444 57.1C47.4444 57.98 47.231 58.7067 46.8044 59.28C46.391 59.8533 45.811 60.2867 45.0644 60.58C44.3177 60.86 43.451 61 42.4644 61H38.2844ZM39.9444 53.46H41.8844C43.0044 53.46 43.811 53.2667 44.3044 52.88C44.7977 52.4933 45.0444 51.9667 45.0444 51.3C45.0444 50.5267 44.7844 49.9867 44.2644 49.68C43.7444 49.36 42.9777 49.2 41.9644 49.2H39.9444V53.46ZM39.9444 59.68H42.2244C43.3577 59.68 44.2377 59.4733 44.8644 59.06C45.491 58.6333 45.8044 57.98 45.8044 57.1C45.8044 56.2867 45.4977 55.6933 44.8844 55.32C44.271 54.9333 43.3844 54.74 42.2244 54.74H39.9444V59.68ZM50.0422 61V47.88H57.6022V49.28H51.7022V53.4H56.6822V54.82H51.7022V59.58H57.8022V61H50.0422ZM60.5891 61V47.88H64.3291C65.3157 47.88 66.1757 48.0067 66.9091 48.26C67.6424 48.5 68.2157 48.9 68.6291 49.46C69.0424 50.02 69.2491 50.78 69.2491 51.74C69.2491 52.66 69.0424 53.42 68.6291 54.02C68.2291 54.6067 67.6624 55.0533 66.9291 55.36C66.2091 55.6533 65.3691 55.8 64.4091 55.8H62.2491V61H60.5891ZM62.2491 54.44H64.2091C65.3557 54.44 66.2024 54.22 66.7491 53.78C67.3091 53.34 67.5891 52.66 67.5891 51.74C67.5891 50.7933 67.2957 50.14 66.7091 49.78C66.1357 49.4067 65.2757 49.22 64.1291 49.22H62.2491V54.44ZM76.8972 61.24C75.8039 61.24 74.8172 60.9733 73.9372 60.44C73.0705 59.8933 72.3905 59.1133 71.8972 58.1C71.4039 57.0867 71.1572 55.8667 71.1572 54.44C71.1572 53.3867 71.2972 52.44 71.5772 51.6C71.8705 50.76 72.2839 50.0467 72.8172 49.46C73.3505 48.86 73.9639 48.4067 74.6572 48.1C75.3639 47.7933 76.1372 47.64 76.9772 47.64C77.7639 47.64 78.4639 47.8 79.0772 48.12C79.7039 48.44 80.2039 48.82 80.5772 49.26L79.6772 50.28C79.3305 49.9067 78.9305 49.62 78.4772 49.42C78.0372 49.2067 77.5439 49.1 76.9972 49.1C76.1839 49.1 75.4639 49.32 74.8372 49.76C74.2239 50.1867 73.7439 50.8 73.3972 51.6C73.0505 52.3867 72.8772 53.32 72.8772 54.4C72.8772 55.5067 73.0439 56.46 73.3772 57.26C73.7105 58.06 74.1905 58.68 74.8172 59.12C75.4439 59.5467 76.1772 59.76 77.0172 59.76C77.6305 59.76 78.1772 59.6467 78.6572 59.42C79.1505 59.18 79.5972 58.8333 79.9972 58.38L80.8772 59.36C80.3572 59.96 79.7772 60.4267 79.1372 60.76C78.4972 61.08 77.7505 61.24 76.8972 61.24ZM83.343 61V47.88H84.983V54.66C84.983 55.3533 84.963 56.06 84.923 56.78C84.883 57.5 84.8296 58.1933 84.763 58.86H84.843L86.243 56.14L91.043 47.88H92.863V61H91.203V54.14C91.203 53.4333 91.2296 52.7333 91.283 52.04C91.3496 51.3467 91.403 50.6733 91.443 50.02H91.363L89.963 52.72L85.163 61H83.343ZM99.227 61V49.3H95.267V47.88H104.867V49.3H100.907V61H99.227ZM107.23 61V47.88H114.79V49.28H108.89V53.4H113.87V54.82H108.89V59.58H114.99V61H107.23ZM120.497 61V49.3H116.537V47.88H126.137V49.3H122.177V61H120.497ZM132.503 61V47.88H140.603V49.28H134.163V53.4H136.683C137.603 53.4 138.423 53.52 139.143 53.76C139.876 54 140.45 54.3867 140.863 54.92C141.276 55.4533 141.483 56.1533 141.483 57.02C141.483 57.94 141.29 58.6933 140.903 59.28C140.516 59.8667 139.97 60.3 139.263 60.58C138.556 60.86 137.723 61 136.763 61H132.503ZM134.163 59.68H136.483C137.603 59.68 138.443 59.4733 139.003 59.06C139.563 58.6333 139.843 57.9667 139.843 57.06C139.843 56.22 139.556 55.6133 138.983 55.24C138.41 54.8667 137.563 54.68 136.443 54.68H134.163V59.68ZM145.025 61.24C144.731 61.24 144.485 61.22 144.285 61.18C144.098 61.1533 143.911 61.1067 143.725 61.04L144.065 59.54C144.185 59.58 144.305 59.6133 144.425 59.64C144.558 59.6667 144.718 59.68 144.905 59.68C145.331 59.68 145.678 59.5933 145.945 59.42C146.211 59.2467 146.431 58.98 146.605 58.62L146.885 57.92L142.405 47.88H144.185L146.625 53.72L147.625 56.3H147.705L148.625 53.72L150.885 47.88H152.585L148.285 58.62C147.951 59.42 147.531 60.06 147.025 60.54C146.518 61.0067 145.851 61.24 145.025 61.24ZM153.547 61V64.76H152.087L151.907 60.58V59.58H163.627V60.58L163.447 64.76H161.987V61H153.547ZM160.487 60.38V49.28H156.947C156.84 50.04 156.733 50.7267 156.627 51.34C156.52 51.94 156.407 52.54 156.287 53.14C156.167 53.74 156.027 54.4133 155.867 55.16C155.667 56.12 155.46 56.9333 155.247 57.6C155.047 58.2533 154.827 58.7933 154.587 59.22C154.36 59.6333 154.113 59.9467 153.847 60.16C153.593 60.3733 153.307 60.5067 152.987 60.56L152.507 59.58C152.693 59.5133 152.88 59.3333 153.067 59.04C153.267 58.7333 153.473 58.2533 153.687 57.6C153.913 56.9333 154.147 56.02 154.387 54.86C154.573 53.9933 154.733 53.2133 154.867 52.52C155.013 51.8133 155.147 51.1 155.267 50.38C155.387 49.6467 155.513 48.8133 155.647 47.88H162.167V60.38H160.487ZM166.861 61.24C166.567 61.24 166.321 61.22 166.121 61.18C165.934 61.1533 165.747 61.1067 165.561 61.04L165.901 59.54C166.021 59.58 166.141 59.6133 166.261 59.64C166.394 59.6667 166.554 59.68 166.741 59.68C167.167 59.68 167.514 59.5933 167.781 59.42C168.047 59.2467 168.267 58.98 168.441 58.62L168.721 57.92L164.241 47.88H166.021L168.461 53.72L169.461 56.3H169.541L170.461 53.72L172.721 47.88H174.421L170.121 58.62C169.787 59.42 169.367 60.06 168.861 60.54C168.354 61.0067 167.687 61.24 166.861 61.24ZM189.874 64.76V61H189.114V59.58H191.514V60.58L191.334 64.76H189.874ZM176.214 61V47.88H177.854V59.58H182.374V47.88H183.994V59.58H188.534V47.88H190.174V61H176.214ZM193.655 61V47.88H201.215V49.28H195.315V53.4H200.295V54.82H195.315V59.58H201.415V61H193.655ZM204.202 61V47.88H211.762V49.3H205.862V61H204.202ZM218.281 61.24C217.187 61.24 216.214 60.96 215.361 60.4C214.521 59.84 213.861 59.0467 213.381 58.02C212.914 56.9933 212.681 55.78 212.681 54.38C212.681 52.98 212.914 51.78 213.381 50.78C213.861 49.7667 214.521 48.9933 215.361 48.46C216.214 47.9133 217.187 47.64 218.281 47.64C219.387 47.64 220.361 47.9133 221.201 48.46C222.041 48.9933 222.701 49.7667 223.181 50.78C223.661 51.78 223.901 52.98 223.901 54.38C223.901 55.78 223.661 56.9933 223.181 58.02C222.701 59.0467 222.041 59.84 221.201 60.4C220.361 60.96 219.387 61.24 218.281 61.24ZM218.281 59.76C219.067 59.76 219.747 59.54 220.321 59.1C220.907 58.66 221.361 58.04 221.681 57.24C222.001 56.4267 222.161 55.4733 222.161 54.38C222.161 53.3 222.001 52.3667 221.681 51.58C221.361 50.7933 220.907 50.1867 220.321 49.76C219.747 49.32 219.067 49.1 218.281 49.1C217.507 49.1 216.827 49.32 216.241 49.76C215.654 50.1867 215.201 50.7933 214.881 51.58C214.561 52.3667 214.401 53.3 214.401 54.38C214.401 55.4733 214.561 56.4267 214.881 57.24C215.201 58.04 215.654 58.66 216.241 59.1C216.827 59.54 217.507 59.76 218.281 59.76Z" fill="black"/>
</svg>
