<svg width="286" height="36" viewBox="0 0 286 36" fill="none" xmlns="http://www.w3.org/2000/svg">
<path d="M22.8933 35.1171L1 30.4986L7.48043 8.58243L20.6077 1.52148L44.2612 4.32925L37.7906 27.9361L22.8933 35.1171Z" fill="#198EFB"/>
<path d="M22.8933 35.1168L1 30.4982L7.48043 8.58203L22.8933 16.9891V35.1168Z" fill="#175BEC" stroke="white" stroke-width="0.0875733"/>
<path d="M10.8081 10.5088L22.5429 17.0768V31.7891L10.8081 25.2211V10.5088Z" fill="white"/>
<path d="M34.4531 10.5088L22.7183 17.0768V31.7891L34.4531 25.2211V10.5088Z" fill="#87EBFF"/>
<path d="M10.8081 10.3311L22.6263 16.9908L34.5405 10.1122L22.6263 4.81393L10.8081 10.3311Z" fill="#87EBFF"/>
<path d="M22.8933 35.1718L1 30.5533L7.48043 8.63711M22.8933 35.1718L37.7906 27.9908L44.2612 4.38394M22.8933 35.1718V17.0442M44.2612 4.38394L20.6077 1.57617L7.48043 8.63711M44.2612 4.38394L22.8933 17.0442M7.48043 8.63711L22.8933 17.0442" stroke="white" stroke-width="1.05088"/>
<path d="M63.72 24.24C63.4267 24.24 63.18 24.22 62.98 24.18C62.7933 24.1533 62.6067 24.1067 62.42 24.04L62.76 22.54C62.88 22.58 63 22.6133 63.12 22.64C63.2533 22.6667 63.4133 22.68 63.6 22.68C64.0267 22.68 64.3733 22.5933 64.64 22.42C64.9067 22.2467 65.1267 21.98 65.3 21.62L65.58 20.92L61.1 10.88H62.88L65.32 16.72L66.32 19.3H66.4L67.32 16.72L69.58 10.88H71.28L66.98 21.62C66.6467 22.42 66.2267 23.06 65.72 23.54C65.2133 24.0067 64.5467 24.24 63.72 24.24ZM73.0734 24V10.88H74.7334V16.38H80.8534V10.88H82.5134V24H80.8534V17.82H74.7334V24H73.0734ZM86.1203 24V10.88H87.7603V17.66C87.7603 18.3533 87.7403 19.06 87.7003 19.78C87.6603 20.5 87.607 21.1933 87.5403 21.86H87.6203L89.0203 19.14L93.8203 10.88H95.6403V24H93.9803V17.14C93.9803 16.4333 94.007 15.7333 94.0603 15.04C94.127 14.3467 94.1803 13.6733 94.2203 13.02H94.1403L92.7403 15.72L87.9403 24H86.1203ZM99.2844 24V10.88H103.184C104.064 10.88 104.844 10.9867 105.524 11.2C106.204 11.4133 106.731 11.76 107.104 12.24C107.491 12.7067 107.684 13.32 107.684 14.08C107.684 14.76 107.518 15.36 107.184 15.88C106.864 16.3867 106.391 16.74 105.764 16.94V17.02C106.591 17.1667 107.244 17.5 107.724 18.02C108.204 18.5267 108.444 19.22 108.444 20.1C108.444 20.98 108.231 21.7067 107.804 22.28C107.391 22.8533 106.811 23.2867 106.064 23.58C105.318 23.86 104.451 24 103.464 24H99.2844ZM100.944 16.46H102.884C104.004 16.46 104.811 16.2667 105.304 15.88C105.798 15.4933 106.044 14.9667 106.044 14.3C106.044 13.5267 105.784 12.9867 105.264 12.68C104.744 12.36 103.978 12.2 102.964 12.2H100.944V16.46ZM100.944 22.68H103.224C104.358 22.68 105.238 22.4733 105.864 22.06C106.491 21.6333 106.804 20.98 106.804 20.1C106.804 19.2867 106.498 18.6933 105.884 18.32C105.271 17.9333 104.384 17.74 103.224 17.74H100.944V22.68ZM111.042 24V10.88H118.602V12.28H112.702V16.4H117.682V17.82H112.702V22.58H118.802V24H111.042ZM121.589 24V10.88H125.329C126.316 10.88 127.176 11.0067 127.909 11.26C128.642 11.5 129.216 11.9 129.629 12.46C130.042 13.02 130.249 13.78 130.249 14.74C130.249 15.66 130.042 16.42 129.629 17.02C129.229 17.6067 128.662 18.0533 127.929 18.36C127.209 18.6533 126.369 18.8 125.409 18.8H123.249V24H121.589ZM123.249 17.44H125.209C126.356 17.44 127.202 17.22 127.749 16.78C128.309 16.34 128.589 15.66 128.589 14.74C128.589 13.7933 128.296 13.14 127.709 12.78C127.136 12.4067 126.276 12.22 125.129 12.22H123.249V17.44ZM137.897 24.24C136.804 24.24 135.817 23.9733 134.937 23.44C134.071 22.8933 133.391 22.1133 132.897 21.1C132.404 20.0867 132.157 18.8667 132.157 17.44C132.157 16.3867 132.297 15.44 132.577 14.6C132.871 13.76 133.284 13.0467 133.817 12.46C134.351 11.86 134.964 11.4067 135.657 11.1C136.364 10.7933 137.137 10.64 137.977 10.64C138.764 10.64 139.464 10.8 140.077 11.12C140.704 11.44 141.204 11.82 141.577 12.26L140.677 13.28C140.331 12.9067 139.931 12.62 139.477 12.42C139.037 12.2067 138.544 12.1 137.997 12.1C137.184 12.1 136.464 12.32 135.837 12.76C135.224 13.1867 134.744 13.8 134.397 14.6C134.051 15.3867 133.877 16.32 133.877 17.4C133.877 18.5067 134.044 19.46 134.377 20.26C134.711 21.06 135.191 21.68 135.817 22.12C136.444 22.5467 137.177 22.76 138.017 22.76C138.631 22.76 139.177 22.6467 139.657 22.42C140.151 22.18 140.597 21.8333 140.997 21.38L141.877 22.36C141.357 22.96 140.777 23.4267 140.137 23.76C139.497 24.08 138.751 24.24 137.897 24.24ZM144.343 24V10.88H145.983V17.66C145.983 18.3533 145.963 19.06 145.923 19.78C145.883 20.5 145.83 21.1933 145.763 21.86H145.843L147.243 19.14L152.043 10.88H153.863V24H152.203V17.14C152.203 16.4333 152.23 15.7333 152.283 15.04C152.35 14.3467 152.403 13.6733 152.443 13.02H152.363L150.963 15.72L146.163 24H144.343ZM160.227 24V12.3H156.267V10.88H165.867V12.3H161.907V24H160.227ZM168.23 24V10.88H175.79V12.28H169.89V16.4H174.87V17.82H169.89V22.58H175.99V24H168.23ZM181.497 24V12.3H177.537V10.88H187.137V12.3H183.177V24H181.497ZM193.503 24V10.88H201.603V12.28H195.163V16.4H197.683C198.603 16.4 199.423 16.52 200.143 16.76C200.876 17 201.45 17.3867 201.863 17.92C202.276 18.4533 202.483 19.1533 202.483 20.02C202.483 20.94 202.29 21.6933 201.903 22.28C201.516 22.8667 200.97 23.3 200.263 23.58C199.556 23.86 198.723 24 197.763 24H193.503ZM195.163 22.68H197.483C198.603 22.68 199.443 22.4733 200.003 22.06C200.563 21.6333 200.843 20.9667 200.843 20.06C200.843 19.22 200.556 18.6133 199.983 18.24C199.41 17.8667 198.563 17.68 197.443 17.68H195.163V22.68ZM206.025 24.24C205.731 24.24 205.485 24.22 205.285 24.18C205.098 24.1533 204.911 24.1067 204.725 24.04L205.065 22.54C205.185 22.58 205.305 22.6133 205.425 22.64C205.558 22.6667 205.718 22.68 205.905 22.68C206.331 22.68 206.678 22.5933 206.945 22.42C207.211 22.2467 207.431 21.98 207.605 21.62L207.885 20.92L203.405 10.88H205.185L207.625 16.72L208.625 19.3H208.705L209.625 16.72L211.885 10.88H213.585L209.285 21.62C208.951 22.42 208.531 23.06 208.025 23.54C207.518 24.0067 206.851 24.24 206.025 24.24ZM214.547 24V27.76H213.087L212.907 23.58V22.58H224.627V23.58L224.447 27.76H222.987V24H214.547ZM221.487 23.38V12.28H217.947C217.84 13.04 217.733 13.7267 217.627 14.34C217.52 14.94 217.407 15.54 217.287 16.14C217.167 16.74 217.027 17.4133 216.867 18.16C216.667 19.12 216.46 19.9333 216.247 20.6C216.047 21.2533 215.827 21.7933 215.587 22.22C215.36 22.6333 215.113 22.9467 214.847 23.16C214.593 23.3733 214.307 23.5067 213.987 23.56L213.507 22.58C213.693 22.5133 213.88 22.3333 214.067 22.04C214.267 21.7333 214.473 21.2533 214.687 20.6C214.913 19.9333 215.147 19.02 215.387 17.86C215.573 16.9933 215.733 16.2133 215.867 15.52C216.013 14.8133 216.147 14.1 216.267 13.38C216.387 12.6467 216.513 11.8133 216.647 10.88H223.167V23.38H221.487ZM227.861 24.24C227.567 24.24 227.321 24.22 227.121 24.18C226.934 24.1533 226.747 24.1067 226.561 24.04L226.901 22.54C227.021 22.58 227.141 22.6133 227.261 22.64C227.394 22.6667 227.554 22.68 227.741 22.68C228.167 22.68 228.514 22.5933 228.781 22.42C229.047 22.2467 229.267 21.98 229.441 21.62L229.721 20.92L225.241 10.88H227.021L229.461 16.72L230.461 19.3H230.541L231.461 16.72L233.721 10.88H235.421L231.121 21.62C230.787 22.42 230.367 23.06 229.861 23.54C229.354 24.0067 228.687 24.24 227.861 24.24ZM250.874 27.76V24H250.114V22.58H252.514V23.58L252.334 27.76H250.874ZM237.214 24V10.88H238.854V22.58H243.374V10.88H244.994V22.58H249.534V10.88H251.174V24H237.214ZM254.655 24V10.88H262.215V12.28H256.315V16.4H261.295V17.82H256.315V22.58H262.415V24H254.655ZM265.202 24V10.88H272.762V12.3H266.862V24H265.202ZM279.281 24.24C278.187 24.24 277.214 23.96 276.361 23.4C275.521 22.84 274.861 22.0467 274.381 21.02C273.914 19.9933 273.681 18.78 273.681 17.38C273.681 15.98 273.914 14.78 274.381 13.78C274.861 12.7667 275.521 11.9933 276.361 11.46C277.214 10.9133 278.187 10.64 279.281 10.64C280.387 10.64 281.361 10.9133 282.201 11.46C283.041 11.9933 283.701 12.7667 284.181 13.78C284.661 14.78 284.901 15.98 284.901 17.38C284.901 18.78 284.661 19.9933 284.181 21.02C283.701 22.0467 283.041 22.84 282.201 23.4C281.361 23.96 280.387 24.24 279.281 24.24ZM279.281 22.76C280.067 22.76 280.747 22.54 281.321 22.1C281.907 21.66 282.361 21.04 282.681 20.24C283.001 19.4267 283.161 18.4733 283.161 17.38C283.161 16.3 283.001 15.3667 282.681 14.58C282.361 13.7933 281.907 13.1867 281.321 12.76C280.747 12.32 280.067 12.1 279.281 12.1C278.507 12.1 277.827 12.32 277.241 12.76C276.654 13.1867 276.201 13.7933 275.881 14.58C275.561 15.3667 275.401 16.3 275.401 17.38C275.401 18.4733 275.561 19.4267 275.881 20.24C276.201 21.04 276.654 21.66 277.241 22.1C277.827 22.54 278.507 22.76 279.281 22.76Z" fill="black"/>
</svg>
